# xmcd
#
# Track frame offsets: 
#        150
#        10948
#        21577
#        32989
#        45485
#        57784
#        69084
#        82101
#        93016
#        104214
#        116468
#        130170
#        142967
#        153706
#        165155
#        173736
#        188428
#        200562
#
# Disc length: 2850 seconds
#
# Revision: 2
# Processed by: cddbd v1.5.2PL0 Copyright (c) Steve Scherf et al.
# Submitted via: ExactAudioCopy v1.3
#
DISCID=e80b2012
DTITLE=Various Artist - Remember Then
DYEAR=2002
DGENRE=DooWop
TTITLE0=The Willows - Church bells may ring
TTITLE1=The Bop Chords - Castle in the sky
TTITLE2=The Kodoks (a.k.a. The Kodaks) - Make believe world
TTITLE3=The Federals - While our hearts are young
TTITLE4=The Spaniels - Goodnight sweetheart goodnight
TTITLE5=The Continentals - Fine fine frame
TTITLE6=The El Dorados - Bim bam boom
TTITLE7=The Love Notes - Tonight
TTITLE8=The Scarlets - Cry baby
TTITLE9=The Charts - Deserie
TTITLE10=The Channels - The closer you are
TTITLE11=The Orioles - For all we know
TTITLE12=Little Bobby Rivera and The Hemlocks - Cora Lee
TTITLE13=The Solitaires - Walking along
TTITLE14=The Fi-Tones - My heart
TTITLE15=The Flamingos - Golden teardrops
TTITLE16=The Harptones - Life is but a dream
TTITLE17=The Penguins - Earth angel (will you be mine)
EXTD=YEAR: 2002
EXTT0=
EXTT1=
EXTT2=
EXTT3=
EXTT4=
EXTT5=
EXTT6=
EXTT7=
EXTT8=
EXTT9=
EXTT10=
EXTT11=
EXTT12=
EXTT13=
EXTT14=
EXTT15=
EXTT16=
EXTT17=
PLAYORDER=
